<svg width="30" height="25" viewBox="0 0 30 40" fill="none" xmlns="http://www.w3.org/2000/svg">
<g clip-path="url(#clip0_117_2)">
<path d="M16.7656 3.23438C15.7891 2.25781 14.2031 2.25781 13.2266 3.23438L0.726562 15.7344C-0.25 16.7109 -0.25 18.2969 0.726562 19.2734C1.70312 20.25 3.28906 20.25 4.26562 19.2734L12.5 11.0312V35C12.5 36.3828 13.6172 37.5 15 37.5C16.3828 37.5 17.5 36.3828 17.5 35V11.0391L25.7344 19.2656C26.7109 20.2422 28.2969 20.2422 29.2734 19.2656C30.25 18.2891 30.25 16.7031 29.2734 15.7266L16.7734 3.22656L16.7656 3.23438Z" fill="#272343"/>
</g>
<defs>
<clipPath id="clip0_117_2">
<rect width="30" height="40" fill="white"/>
</clipPath>
</defs>
</svg>
