<svg width="30" height="35" viewBox="0 0 30 35" fill="none" xmlns="http://www.w3.org/2000/svg">
<g clip-path="url(#clip0_5_16)">
<path d="M0.629469 15.6295C-0.207585 16.4666 -0.207585 17.826 0.629469 18.663L11.3438 29.3773C12.1808 30.2144 13.5402 30.2144 14.3772 29.3773C15.2143 28.5402 15.2143 27.1809 14.3772 26.3438L7.3125 19.2858H27.8571C29.0424 19.2858 30 18.3282 30 17.1429C30 15.9577 29.0424 15.0001 27.8571 15.0001H7.3192L14.3705 7.94203C15.2076 7.10498 15.2076 5.74561 14.3705 4.90855C13.5335 4.0715 12.1741 4.0715 11.3371 4.90855L0.622772 15.6228L0.629469 15.6295Z" fill="#272343"/>
</g>
<defs>
<clipPath id="clip0_5_16">
<rect width="30" height="34.2857" fill="white"/>
</clipPath>
</defs>
</svg>
