<svg width="30" height="35" viewBox="0 0 30 35" fill="none" xmlns="http://www.w3.org/2000/svg">
<g clip-path="url(#clip0_5_16)">
<path d="M29.3705 18.6561C30.2076 17.8191 30.2076 16.4597 29.3705 15.6226L18.6562 4.90834C17.8192 4.07129 16.4598 4.07129 15.6228 4.90834C14.7857 5.7454 14.7857 7.10477 15.6228 7.94183L22.6875 14.9999L2.14285 14.9999C0.957582 14.9999 -7.62939e-06 15.9574 -7.62939e-06 17.1427C-7.62939e-06 18.328 0.957582 19.2856 2.14285 19.2856L22.6808 19.2856L15.6295 26.3436C14.7924 27.1807 14.7924 28.54 15.6295 29.3771C16.4665 30.2141 17.8259 30.2141 18.6629 29.3771L29.3772 18.6628L29.3705 18.6561Z" fill="#272343"/>
</g>
<defs>
<clipPath id="clip0_5_16">
<rect width="30" height="34.2857" fill="white" transform="matrix(-1 0 0 -1 30 34.2856)"/>
</clipPath>
</defs>
</svg>
