<svg width="30" height="26" viewBox="0 0 30 26" fill="none" xmlns="http://www.w3.org/2000/svg">
<path d="M0 2.42856C0 1.24329 0.957589 0.285706 2.14286 0.285706H27.8571C29.0424 0.285706 30 1.24329 30 2.42856C30 3.61383 29.0424 4.57142 27.8571 4.57142H2.14286C0.957589 4.57142 0 3.61383 0 2.42856ZM0 13.1428C0 11.9576 0.957589 11 2.14286 11H27.8571C29.0424 11 30 11.9576 30 13.1428C30 14.3281 29.0424 15.2857 27.8571 15.2857H2.14286C0.957589 15.2857 0 14.3281 0 13.1428ZM30 23.8571C30 25.0424 29.0424 26 27.8571 26H2.14286C0.957589 26 0 25.0424 0 23.8571C0 22.6719 0.957589 21.7143 2.14286 21.7143H27.8571C29.0424 21.7143 30 22.6719 30 23.8571Z" fill="white"/>
</svg>
