<svg width="50" height="48" viewBox="0 0 50 48" fill="none" xmlns="http://www.w3.org/2000/svg">
<path d="M17.1875 2.22658C17.1875 0.992684 16.1426 0 14.8438 0C13.5449 0 12.5 0.992684 12.5 2.22658V5.93755C9.05273 5.93755 6.25 8.60017 6.25 11.8751H2.34375C1.04492 11.8751 0 12.8678 0 14.1017C0 15.3356 1.04492 16.3283 2.34375 16.3283H6.25V21.5236H2.34375C1.04492 21.5236 0 22.5163 0 23.7502C0 24.9841 1.04492 25.9768 2.34375 25.9768H6.25V31.1721H2.34375C1.04492 31.1721 0 32.1648 0 33.3987C0 34.6326 1.04492 35.6253 2.34375 35.6253H6.25C6.25 38.9002 9.05273 41.5628 12.5 41.5628V45.2738C12.5 46.5077 13.5449 47.5004 14.8438 47.5004C16.1426 47.5004 17.1875 46.5077 17.1875 45.2738V41.5628H22.6562V45.2738C22.6562 46.5077 23.7012 47.5004 25 47.5004C26.2988 47.5004 27.3438 46.5077 27.3438 45.2738V41.5628H32.8125V45.2738C32.8125 46.5077 33.8574 47.5004 35.1562 47.5004C36.4551 47.5004 37.5 46.5077 37.5 45.2738V41.5628C40.9473 41.5628 43.75 38.9002 43.75 35.6253H47.6562C48.9551 35.6253 50 34.6326 50 33.3987C50 32.1648 48.9551 31.1721 47.6562 31.1721H43.75V25.9768H47.6562C48.9551 25.9768 50 24.9841 50 23.7502C50 22.5163 48.9551 21.5236 47.6562 21.5236H43.75V16.3283H47.6562C48.9551 16.3283 50 15.3356 50 14.1017C50 12.8678 48.9551 11.8751 47.6562 11.8751H43.75C43.75 8.60017 40.9473 5.93755 37.5 5.93755V2.22658C37.5 0.992684 36.4551 0 35.1562 0C33.8574 0 32.8125 0.992684 32.8125 2.22658V5.93755H27.3438V2.22658C27.3438 0.992684 26.2988 0 25 0C23.7012 0 22.6562 0.992684 22.6562 2.22658V5.93755H17.1875V2.22658ZM15.625 11.8751H34.375C36.1035 11.8751 37.5 13.2018 37.5 14.8439V32.6565C37.5 34.2986 36.1035 35.6253 34.375 35.6253H15.625C13.8965 35.6253 12.5 34.2986 12.5 32.6565V14.8439C12.5 13.2018 13.8965 11.8751 15.625 11.8751ZM34.375 14.8439H15.625V32.6565H34.375V14.8439Z" fill="#272343"/>
</svg>
