<svg width="35" height="35" viewBox="0 0 35 35" fill="none" xmlns="http://www.w3.org/2000/svg">
<g clip-path="url(#clip0_5_29)">
<path d="M35 17.5C35 7.83398 27.166 0 17.5 0C7.83398 0 0 7.83398 0 17.5C0 25.7031 5.65332 32.5938 13.2754 34.4873V22.8457H9.66602V17.5H13.2754V15.1963C13.2754 9.24219 15.9688 6.48047 21.8203 6.48047C22.9277 6.48047 24.8418 6.69922 25.6279 6.91797V11.7578C25.2178 11.7168 24.5 11.6895 23.6045 11.6895C20.7334 11.6895 19.626 12.7764 19.626 15.5996V17.5H25.3408L24.3564 22.8457H19.6191V34.8701C28.2871 33.8242 35 26.4482 35 17.5Z" fill="#9B9B9B"/>
</g>
<defs>
<clipPath id="clip0_5_29">
<rect width="35" height="35" fill="white"/>
</clipPath>
</defs>
</svg>
