<svg width="45" height="52" viewBox="0 0 45 52" fill="none" xmlns="http://www.w3.org/2000/svg">
<path d="M3.21429 0C4.99219 0 6.42857 1.43638 6.42857 3.21429V4.82143L13.3594 3.09375C17.1864 2.13951 21.2243 2.58147 24.76 4.34933C29.4107 6.67969 34.885 6.67969 39.5357 4.34933L40.5 3.86719C42.5692 2.82254 45 4.32924 45 6.63951V34.7344C45 36.0703 44.1663 37.2757 42.9107 37.7478L39.4252 39.0536C34.7846 40.7913 29.6217 40.5201 25.192 38.3103C21.385 36.4018 17.0257 35.9297 12.8873 36.9643L6.42857 38.5714V48.2143C6.42857 49.9922 4.99219 51.4286 3.21429 51.4286C1.43638 51.4286 0 49.9922 0 48.2143V40.1786V33.5491V6.42857V3.21429C0 1.43638 1.43638 0 3.21429 0ZM6.42857 18.7935L12.8571 17.3973V23.9766L6.42857 25.3728V31.942L11.3304 30.7165C11.8426 30.5859 12.3449 30.4754 12.8571 30.385V23.9665L16.7645 23.1228C17.5982 22.942 18.442 22.8717 19.2857 22.9118V16.4833C20.6518 16.5234 22.0179 16.7444 23.3437 17.1261L25.7143 17.8192V24.519L21.5257 23.2835C20.7924 23.0725 20.0391 22.942 19.2857 22.9018V30.0737C21.4754 30.2645 23.635 30.7466 25.7143 31.5201V24.5089L27.9944 25.1819C29.3504 25.5837 30.7366 25.8248 32.1429 25.9252V19.4766C31.3594 19.3962 30.5759 19.2455 29.8125 19.0246L25.7143 17.8192V11.5915C24.4085 11.2098 23.1228 10.7076 21.8772 10.0848C21.0536 9.67299 20.1797 9.3817 19.2857 9.20089V16.4732C17.9799 16.433 16.6741 16.5536 15.3984 16.8348L12.8571 17.3973V9.84375L6.42857 11.4509V18.7935ZM32.1429 33.7199C33.8304 33.8705 35.548 33.6496 37.1652 33.0368L38.5714 32.5145V25.3125L37.7779 25.4933C35.9297 25.9252 34.0312 26.0658 32.1429 25.9453V33.7199ZM38.5714 18.7132V11.6016C36.4721 12.2143 34.3125 12.5156 32.1429 12.5156V19.4866C33.5391 19.6272 34.9554 19.5368 36.3315 19.2254L38.5714 18.7031V18.7132Z" fill="#272343"/>
</svg>
