<svg width="30" height="35" viewBox="0 0 30 35" fill="none" xmlns="http://www.w3.org/2000/svg">
<g clip-path="url(#clip0_5_31)">
<path d="M15.0067 9.44217C10.7478 9.44217 7.31252 12.8774 7.31252 17.1364C7.31252 21.3953 10.7478 24.8306 15.0067 24.8306C19.2656 24.8306 22.7009 21.3953 22.7009 17.1364C22.7009 12.8774 19.2656 9.44217 15.0067 9.44217ZM15.0067 22.1386C12.2545 22.1386 10.0045 19.8953 10.0045 17.1364C10.0045 14.3774 12.2478 12.1341 15.0067 12.1341C17.7656 12.1341 20.0089 14.3774 20.0089 17.1364C20.0089 19.8953 17.7589 22.1386 15.0067 22.1386ZM24.8103 9.12744C24.8103 10.1252 24.0067 10.9221 23.0156 10.9221C22.0179 10.9221 21.221 10.1185 21.221 9.12744C21.221 8.13637 22.0246 7.3328 23.0156 7.3328C24.0067 7.3328 24.8103 8.13637 24.8103 9.12744ZM29.9063 10.9489C29.7924 8.54485 29.2433 6.41539 27.4822 4.66092C25.7277 2.90646 23.5982 2.35735 21.1942 2.23682C18.7165 2.09619 11.2902 2.09619 8.81252 2.23682C6.4152 2.35066 4.28573 2.89976 2.52457 4.65423C0.76341 6.40869 0.221 8.53816 0.100464 10.9422C-0.0401611 13.4199 -0.0401611 20.8462 0.100464 23.3239C0.214303 25.7279 0.76341 27.8574 2.52457 29.6118C4.28573 31.3663 6.4085 31.9154 8.81252 32.0359C11.2902 32.1765 18.7165 32.1765 21.1942 32.0359C23.5982 31.9221 25.7277 31.373 27.4822 29.6118C29.2366 27.8574 29.7857 25.7279 29.9063 23.3239C30.0469 20.8462 30.0469 13.4265 29.9063 10.9489ZM26.7054 25.9824C26.1831 27.2949 25.1719 28.306 23.8527 28.835C21.8773 29.6185 17.1897 29.4377 15.0067 29.4377C12.8237 29.4377 8.12948 29.6118 6.16073 28.835C4.84823 28.3127 3.83707 27.3015 3.30805 25.9824C2.52457 24.0069 2.70537 19.3194 2.70537 17.1364C2.70537 14.9533 2.53127 10.2591 3.30805 8.29039C3.83037 6.97789 4.84154 5.96673 6.16073 5.43771C8.13618 4.65423 12.8237 4.83503 15.0067 4.83503C17.1897 4.83503 21.8839 4.66092 23.8527 5.43771C25.1652 5.96003 26.1764 6.97119 26.7054 8.29039C27.4889 10.2658 27.3081 14.9533 27.3081 17.1364C27.3081 19.3194 27.4889 24.0136 26.7054 25.9824Z" fill="#9B9B9B"/>
</g>
<defs>
<clipPath id="clip0_5_31">
<rect width="30" height="34.2857" fill="white"/>
</clipPath>
</defs>
</svg>
