<svg width="45" height="48" viewBox="0 0 45 48" fill="none" xmlns="http://www.w3.org/2000/svg">
<path d="M18.2109 0.0464474C19.9587 0.353807 21.144 2.10257 20.8527 3.94673L19.8683 10.1787H29.4208L30.5759 2.83388C30.8672 0.989722 32.5246 -0.260912 34.2723 0.0464474C36.0201 0.353807 37.2054 2.10257 36.9141 3.94673L35.9397 10.1787H41.7857C43.5636 10.1787 45 11.6943 45 13.5702C45 15.4462 43.5636 16.9618 41.7857 16.9618H34.865L32.7254 30.528H38.5714C40.3493 30.528 41.7857 32.0436 41.7857 33.9195C41.7857 35.7955 40.3493 37.3111 38.5714 37.3111H31.6507L30.4955 44.6559C30.2042 46.5001 28.5469 47.7507 26.7991 47.4433C25.0513 47.136 23.8661 45.3872 24.1574 43.5431L25.1417 37.3217H15.5893L14.4342 44.6665C14.1429 46.5107 12.4855 47.7613 10.7377 47.4539C8.98996 47.1466 7.80469 45.3978 8.09598 43.5537L9.06027 37.3111H3.21429C1.43638 37.3111 0 35.7955 0 33.9195C0 32.0436 1.43638 30.528 3.21429 30.528H10.135L12.2746 16.9618H6.42857C4.65067 16.9618 3.21429 15.4462 3.21429 13.5702C3.21429 11.6943 4.65067 10.1787 6.42857 10.1787H13.3493L14.5045 2.83388C14.7958 0.989722 16.4531 -0.260912 18.2009 0.0464474H18.2109ZM18.7935 16.9618L16.654 30.528H26.2065L28.346 16.9618H18.7935Z" fill="#272343"/>
</svg>
