<svg width="162" height="240" viewBox="0 0 162 240" fill="none" xmlns="http://www.w3.org/2000/svg">
<path d="M140.973 120.208C140.973 137.851 134.809 152.914 123.079 164.123C114.755 172.082 101.934 183.236 101.934 195.03V204.788H62.8952V195.03C62.8952 183.113 50.0237 171.936 41.7502 164.123C30.2851 153.306 23.8562 137.221 23.8562 120.208V119.847C23.9066 104.318 30.1231 89.445 41.1385 78.499C52.1539 67.5531 67.066 61.4307 82.595 61.4785C98.124 61.5264 112.998 67.7405 123.946 78.7541C134.894 89.7676 141.018 104.679 140.973 120.208Z" fill="#FFFCBA"/>
<path d="M101.934 206.158C101.57 206.158 101.222 206.013 100.965 205.756C100.708 205.499 100.564 205.151 100.564 204.788V195.029C100.564 183.557 111.878 172.847 120.14 165.027C120.824 164.378 121.492 163.749 122.132 163.135C133.56 152.209 139.601 137.366 139.601 120.208C139.601 88.1421 114.482 63.023 82.4156 63.023H82.2539C67.1632 63.0399 52.693 69.0312 42.0073 79.6869C31.3215 90.3427 25.2895 104.796 25.2301 119.887V120.206C25.2301 137.009 31.5946 152.653 42.6926 163.129C43.2547 163.66 43.8387 164.207 44.4382 164.768C52.8062 172.603 64.2668 183.332 64.2668 195.029V204.788C64.2668 205.151 64.1225 205.499 63.8656 205.756C63.6087 206.013 63.2603 206.158 62.897 206.158C62.5337 206.158 62.1853 206.013 61.9284 205.756C61.6715 205.499 61.5272 205.151 61.5272 204.788V195.029C61.5272 184.52 50.5689 174.26 42.5657 166.765C41.9634 166.202 41.3788 165.653 40.8119 165.119C29.1687 154.128 22.4905 137.758 22.4905 120.207V119.878C22.5819 86.9824 49.3772 60.2816 82.2498 60.2816H82.4192C98.229 60.1994 113.424 66.401 124.661 77.5221C135.899 88.6432 142.258 103.773 142.34 119.583C142.341 119.791 142.341 120 142.34 120.208C142.34 138.132 136.007 153.66 124.025 165.115C123.382 165.73 122.712 166.364 122.023 167.017C114.123 174.494 103.302 184.735 103.302 195.028V204.788C103.302 205.151 103.158 205.499 102.901 205.756C102.644 206.013 102.296 206.158 101.932 206.158H101.934Z" fill="#3F3D56"/>
<path d="M95.4281 223.734H69.4021C68.7966 223.734 68.216 223.494 67.7878 223.066C67.3597 222.638 67.1191 222.057 67.1191 221.451C67.1191 220.846 67.3597 220.265 67.7878 219.837C68.216 219.409 68.7966 219.168 69.4021 219.168H95.4281C96.0336 219.168 96.6143 219.409 97.0424 219.837C97.4706 220.265 97.7111 220.846 97.7111 221.451C97.7111 222.057 97.4706 222.638 97.0424 223.066C96.6143 223.494 96.0336 223.734 95.4281 223.734Z" fill="#A499FF"/>
<path d="M85.2136 239.03H79.6125C77.6669 239.032 75.7578 238.503 74.0903 237.5C73.8431 237.356 73.6516 237.133 73.5466 236.867C73.4416 236.601 73.4291 236.307 73.5112 236.033C73.5863 235.751 73.7526 235.503 73.9841 235.326C74.2155 235.149 74.4991 235.053 74.7904 235.055H90.0357C90.327 235.053 90.6106 235.149 90.842 235.326C91.0735 235.503 91.2398 235.751 91.3149 236.033C91.3971 236.307 91.3846 236.601 91.2795 236.867C91.1745 237.133 90.9829 237.356 90.7357 237.5C89.0682 238.503 87.1591 239.032 85.2136 239.03Z" fill="#3F3D56"/>
<path d="M95.4326 230.946L69.2522 230.943L69.1711 230.769C69.0938 230.449 69.0907 230.116 69.1619 229.795C69.2331 229.474 69.3768 229.173 69.5819 228.916C69.7899 228.652 70.0552 228.439 70.3575 228.293C70.6599 228.147 70.9916 228.071 71.3275 228.072H93.4987C93.8346 228.071 94.1663 228.147 94.4688 228.293C94.7712 228.439 95.0364 228.652 95.2444 228.916C95.4478 229.17 95.591 229.466 95.663 229.783C95.7351 230.1 95.7342 230.429 95.6603 230.746L95.6192 230.922L95.4326 230.946Z" fill="#3F3D56"/>
<path d="M21.8705 66.394C21.3186 66.3947 20.7854 66.1946 20.3701 65.831L0.764345 48.7174C0.315215 48.3173 0.0421272 47.7561 0.0044427 47.1557C-0.0332418 46.5554 0.167525 45.9645 0.563093 45.5114C0.958661 45.0582 1.51707 44.7795 2.11698 44.7358C2.71689 44.6921 3.30982 44.8868 3.76692 45.2778L23.3727 62.3915C23.7229 62.6972 23.9714 63.1024 24.0851 63.5531C24.1988 64.0038 24.1722 64.4784 24.0089 64.9136C23.8456 65.3488 23.5534 65.7238 23.1712 65.9884C22.7891 66.253 22.3353 66.3947 21.8705 66.3945V66.394Z" fill="#E4E4E4"/>
<path d="M139.708 66.394C139.243 66.3942 138.789 66.2526 138.407 65.9879C138.025 65.7233 137.733 65.3483 137.569 64.9132C137.406 64.478 137.38 64.0033 137.493 63.5526C137.607 63.1019 137.855 62.6967 138.206 62.3911L157.811 45.276C158.268 44.885 158.861 44.6902 159.461 44.734C160.061 44.7777 160.619 45.0564 161.015 45.5095C161.41 45.9627 161.611 46.5536 161.573 47.1539C161.536 47.7542 161.263 48.3154 160.814 48.7155L141.208 65.8292C140.793 66.1933 140.26 66.394 139.708 66.394Z" fill="#E4E4E4"/>
<path d="M101.934 215.632H62.8947C62.2892 215.632 61.7085 215.391 61.2804 214.963C60.8523 214.535 60.6117 213.955 60.6117 213.349C60.6117 212.744 60.8523 212.163 61.2804 211.735C61.7085 211.307 62.2892 211.066 62.8947 211.066H101.934C102.539 211.066 103.12 211.307 103.548 211.735C103.976 212.163 104.217 212.744 104.217 213.349C104.217 213.955 103.976 214.535 103.548 214.963C103.12 215.391 102.539 215.632 101.934 215.632Z" fill="#A499FF"/>
<path d="M81.4558 155.991L73.3375 204.788H68.7031L76.9492 155.242C77.0485 154.645 77.3811 154.111 77.8739 153.759C78.3667 153.406 78.9793 153.264 79.5769 153.364C80.1745 153.463 80.7082 153.795 81.0606 154.288C81.4129 154.781 81.5551 155.394 81.4558 155.991Z" fill="#E6E6E6"/>
<path d="M97.0577 204.788H92.4232L84.305 155.991C84.2057 155.394 84.3478 154.781 84.7002 154.288C85.0525 153.795 85.5862 153.463 86.1838 153.364C86.7815 153.264 87.394 153.406 87.8868 153.759C88.3796 154.111 88.7123 154.645 88.8116 155.242L97.0577 204.788Z" fill="#E6E6E6"/>
<path d="M67.5773 154.361C67.5773 153.756 67.8179 153.175 68.246 152.747C68.6741 152.319 69.2548 152.078 69.8603 152.078H94.9699C95.5754 152.078 96.1561 152.319 96.5842 152.747C97.0124 153.175 97.2529 153.756 97.2529 154.361C97.2529 154.967 97.0124 155.547 96.5842 155.976C96.1561 156.404 95.5754 156.644 94.9699 156.644H69.8603C69.2548 156.644 68.6741 156.404 68.246 155.976C67.8179 155.547 67.5773 154.967 67.5773 154.361Z" fill="#E6E6E6"/>
<path d="M82.4151 43.6049C81.8096 43.6049 81.2289 43.3644 80.8008 42.9363C80.3727 42.5081 80.1321 41.9274 80.1321 41.3219V2.28298C80.1321 1.6775 80.3727 1.09681 80.8008 0.668669C81.2289 0.240528 81.8096 0 82.4151 0C83.0206 0 83.6013 0.240528 84.0294 0.668669C84.4576 1.09681 84.6981 1.6775 84.6981 2.28298V41.3219C84.6981 41.9274 84.4576 42.5081 84.0294 42.9363C83.6013 43.3644 83.0206 43.6049 82.4151 43.6049Z" fill="#E4E4E4"/>
</svg>
