<svg width="30" height="35" viewBox="0 0 30 35" fill="none" xmlns="http://www.w3.org/2000/svg">
<path d="M27.8571 2.14307H2.13616C0.957589 2.14307 0 3.11405 0 4.30601V29.9801C0 31.1721 0.957589 32.1431 2.13616 32.1431H27.8571C29.0357 32.1431 30 31.1721 30 29.9801V4.30601C30 3.11405 29.0357 2.14307 27.8571 2.14307ZM9.06696 27.8574H4.62054V13.5404H9.07366V27.8574H9.06696ZM6.84375 11.585C5.41741 11.585 4.26562 10.4265 4.26562 9.00691C4.26562 7.58726 5.41741 6.42878 6.84375 6.42878C8.26339 6.42878 9.42187 7.58726 9.42187 9.00691C9.42187 10.4332 8.27009 11.585 6.84375 11.585ZM25.7344 27.8574H21.2879V20.8931C21.2879 19.2324 21.2545 17.0962 18.9777 17.0962C16.6607 17.0962 16.3058 18.9042 16.3058 20.7725V27.8574H11.8594V13.5404H16.125V15.4957H16.1853C16.7812 14.3707 18.2344 13.1855 20.3973 13.1855C24.8973 13.1855 25.7344 16.152 25.7344 20.0091V27.8574Z" fill="#9B9B9B"/>
</svg>
