<svg width="50" height="50" viewBox="0 0 50 50" fill="none" xmlns="http://www.w3.org/2000/svg">
<g clip-path="url(#clip0_40_153)">
<g clip-path="url(#clip1_40_153)">
<path d="M50 25C50 25.0879 50 25.1758 50 25.2637C49.9609 28.8281 46.7188 31.25 43.1543 31.25H33.5938C31.0059 31.25 28.9062 33.3496 28.9062 35.9375C28.9062 36.2695 28.9453 36.5918 29.0039 36.9043C29.209 37.9004 29.6387 38.8574 30.0586 39.8242C30.6543 41.1719 31.2402 42.5098 31.2402 43.9258C31.2402 47.0312 29.1309 49.8535 26.0254 49.9805C25.6836 49.9902 25.3418 50 24.9902 50C11.1914 50 0 38.8086 0 25C0 11.1914 11.1914 0 25 0C38.8086 0 50 11.1914 50 25ZM12.5 28.125C12.5 27.2962 12.1708 26.5013 11.5847 25.9153C10.9987 25.3292 10.2038 25 9.375 25C8.5462 25 7.75134 25.3292 7.16529 25.9153C6.57924 26.5013 6.25 27.2962 6.25 28.125C6.25 28.9538 6.57924 29.7487 7.16529 30.3347C7.75134 30.9208 8.5462 31.25 9.375 31.25C10.2038 31.25 10.9987 30.9208 11.5847 30.3347C12.1708 29.7487 12.5 28.9538 12.5 28.125ZM12.5 18.75C13.3288 18.75 14.1237 18.4208 14.7097 17.8347C15.2958 17.2487 15.625 16.4538 15.625 15.625C15.625 14.7962 15.2958 14.0013 14.7097 13.4153C14.1237 12.8292 13.3288 12.5 12.5 12.5C11.6712 12.5 10.8763 12.8292 10.2903 13.4153C9.70424 14.0013 9.375 14.7962 9.375 15.625C9.375 16.4538 9.70424 17.2487 10.2903 17.8347C10.8763 18.4208 11.6712 18.75 12.5 18.75ZM28.125 9.375C28.125 8.5462 27.7958 7.75134 27.2097 7.16529C26.6237 6.57924 25.8288 6.25 25 6.25C24.1712 6.25 23.3763 6.57924 22.7903 7.16529C22.2042 7.75134 21.875 8.5462 21.875 9.375C21.875 10.2038 22.2042 10.9987 22.7903 11.5847C23.3763 12.1708 24.1712 12.5 25 12.5C25.8288 12.5 26.6237 12.1708 27.2097 11.5847C27.7958 10.9987 28.125 10.2038 28.125 9.375ZM37.5 18.75C38.3288 18.75 39.1237 18.4208 39.7097 17.8347C40.2958 17.2487 40.625 16.4538 40.625 15.625C40.625 14.7962 40.2958 14.0013 39.7097 13.4153C39.1237 12.8292 38.3288 12.5 37.5 12.5C36.6712 12.5 35.8763 12.8292 35.2903 13.4153C34.7042 14.0013 34.375 14.7962 34.375 15.625C34.375 16.4538 34.7042 17.2487 35.2903 17.8347C35.8763 18.4208 36.6712 18.75 37.5 18.75Z" fill="#272343"/>
</g>
</g>
<defs>
<clipPath id="clip0_40_153">
<rect width="50" height="50" fill="white"/>
</clipPath>
<clipPath id="clip1_40_153">
<rect width="50" height="50" fill="white"/>
</clipPath>
</defs>
</svg>
