<svg width="50" height="40" viewBox="0 0 50 40" fill="none" xmlns="http://www.w3.org/2000/svg">
<path d="M7.5 10C7.5 7.34784 8.55357 4.8043 10.4289 2.92893C12.3043 1.05357 14.8478 0 17.5 0C20.1522 0 22.6957 1.05357 24.5711 2.92893C26.4464 4.8043 27.5 7.34784 27.5 10C27.5 12.6522 26.4464 15.1957 24.5711 17.0711C22.6957 18.9464 20.1522 20 17.5 20C14.8478 20 12.3043 18.9464 10.4289 17.0711C8.55357 15.1957 7.5 12.6522 7.5 10ZM0 37.6797C0 29.9844 6.23438 23.75 13.9297 23.75H21.0703C28.7656 23.75 35 29.9844 35 37.6797C35 38.9609 33.9609 40 32.6797 40H2.32031C1.03906 40 0 38.9609 0 37.6797ZM47.6016 40H36.8359C37.2578 39.2656 37.5078 38.4141 37.5078 37.5V36.875C37.5078 32.1328 35.3906 27.875 32.0547 25.0156C32.2422 25.0078 32.4219 25 32.6094 25H37.4062C44.3594 25 50 30.6406 50 37.6016C50 38.9297 48.9219 40 47.6016 40ZM33.75 20C31.3281 20 29.1406 19.0156 27.5547 17.4297C29.0938 15.3516 30 12.7812 30 10C30 7.90625 29.4844 5.92969 28.5703 4.19531C30.0234 3.13281 31.8125 2.5 33.75 2.5C38.5859 2.5 42.5 6.41406 42.5 11.25C42.5 16.0859 38.5859 20 33.75 20Z" fill="#272343"/>
</svg>
